<svg width="52" height="253" viewBox="0 0 52 253" fill="none" xmlns="http://www.w3.org/2000/svg">
<path d="M20.8849 2.05385C21.1105 0.24923 25.4386 8.17084 25.8377 9.16855C29.4505 18.2006 32.7041 27.0429 35.586 36.4088C39.0934 47.8078 40.7412 59.2489 42.4255 71.0389C44.1661 83.2231 44.4231 96.5446 41.6787 108.578C40.4313 114.047 38.0254 119.713 35.586 124.773C34.1715 127.706 32.7892 132.113 29.3753 133.342C24.5693 135.072 18.5866 132.675 15.9321 128.546C10.082 119.446 14.067 112.113 23.3613 108.539C30.1777 105.917 40.5919 111.744 44.9412 116.715C52.2982 125.122 50.7099 141.13 48.4789 151.03C46.0299 161.898 44.0311 172.104 39.9098 182.594C33.7198 198.351 24.1429 212.108 16.7576 227.248C14.1247 232.645 11.5933 238.004 8.85671 243.325C7.73578 245.504 6.02655 248.016 6.02655 250.4" stroke="white" stroke-width="3" stroke-linecap="round"/>
<path d="M1.8526 229.316C3.93144 229.576 4.23092 241.051 4.36437 242.653C4.48536 244.105 4.16709 252.016 6.62849 250.648C9.42143 249.096 11.4318 246.339 14.093 244.599C15.7991 243.483 19.6387 240.778 21.593 240.778" stroke="white" stroke-width="3" stroke-linecap="round"/>
</svg>
