<svg width="53" height="53" viewBox="0 0 53 53" fill="none" xmlns="http://www.w3.org/2000/svg">
<path d="M39.75 28.7084H28.7083V39.75C28.7083 40.9646 27.7146 41.9584 26.5 41.9584C25.2854 41.9584 24.2917 40.9646 24.2917 39.75V28.7084H13.25C12.0354 28.7084 11.0417 27.7146 11.0417 26.5C11.0417 25.2854 12.0354 24.2917 13.25 24.2917H24.2917V13.25C24.2917 12.0354 25.2854 11.0417 26.5 11.0417C27.7146 11.0417 28.7083 12.0354 28.7083 13.25V24.2917H39.75C40.9646 24.2917 41.9583 25.2854 41.9583 26.5C41.9583 27.7146 40.9646 28.7084 39.75 28.7084Z" fill="black"/>
</svg>
